<?xml version="1.0" encoding="UTF-8" standalone="no"?>
<!-- Created with Inkscape (http://www.inkscape.org/) -->
<svg xmlns:inkscape="http://www.inkscape.org/namespaces/inkscape" xmlns:rdf="http://www.w3.org/1999/02/22-rdf-syntax-ns#" xmlns="http://www.w3.org/2000/svg" sodipodi:docname="ArchPal_diagram58v-tracesteps.svg" xmlns:sodipodi="http://sodipodi.sourceforge.net/DTD/sodipodi-0.dtd" height="1502" width="2179" version="1.1" xmlns:cc="http://creativecommons.org/ns#" xmlns:xlink="http://www.w3.org/1999/xlink" inkscape:version="0.48.4 r9939" xmlns:dc="http://purl.org/dc/elements/1.1/">
 <sodipodi:namedview fit-margin-left="0" inkscape:zoom="0.35" borderopacity="1.0" inkscape:current-layer="layer11" inkscape:cx="1160.3045" inkscape:cy="789.67442" inkscape:window-maximized="1" showgrid="false" fit-margin-right="0" inkscape:snap-midpoints="true" inkscape:document-units="px" bordercolor="#666666" inkscape:window-x="-8" inkscape:window-y="-8" fit-margin-bottom="0" inkscape:window-width="1280" inkscape:pageopacity="0.0" inkscape:pageshadow="2" pagecolor="#ffffff" inkscape:window-height="738" fit-margin-top="0"/>
 <metadata>
  <rdf:RDF>
   <cc:Work rdf:about="">
    <dc:format>image/svg+xml</dc:format>
    <dc:type rdf:resource="http://purl.org/dc/dcmitype/StillImage"/>
    <dc:title/>
   </cc:Work>
  </rdf:RDF>
 </metadata>
 <g inkscape:label="urn:cts:greekLit:tlg0552.tlg001:1.33.2" inkscape:groupmode="layer" display="none">
  <image xlink:href="file:///C:/Users/Christine/Desktop/150v-153r_Arch58v_Sinar_pseudo_no-veil.jpg" height="1502" width="2179" y="-0.4285712" x="-0.9285719"/>
 </g>
 <g inkscape:label="tracesteps.1" inkscape:groupmode="layer">
  <path sodipodi:rx="212.85715" sodipodi:ry="212.85715" sodipodi:type="arc" d="m534.2857,840.5714a212.8572,212.8572,0,1,1,-425.7143,0,212.8572,212.8572,0,1,1,425.7143,0z" stroke-linejoin="miter" stroke-linecap="butt" transform="matrix(0.95313023,0,0,0.95313023,-84.129713,-26.483864)" stroke="#000" sodipodi:cy="840.57141" sodipodi:cx="321.42856" stroke-width="4.19669819" fill="none"/>
 </g>
 <g stroke-linejoin="miter" inkscape:groupmode="layer" stroke="#000" stroke-linecap="butt" stroke-width="4" inkscape:label="tracesteps.2" fill="none">
  <path d="m1911.015,717.0948,25.7143,587.143" inkscape:connector-curvature="0"/>
  <path d="m2132.952,710.2362,17.1429,322.8572" inkscape:connector-curvature="0"/>
 </g>
 <g inkscape:label="tracesteps.3" inkscape:groupmode="layer">
  <path stroke-linejoin="miter" d="m2025.714,720.5714,25.7143,460" inkscape:connector-curvature="0" stroke="#000" stroke-linecap="butt" stroke-width="4" fill="none"/>
 </g>
 <g inkscape:label="tracesteps.4" inkscape:groupmode="layer">
  <path sodipodi:rx="212.85715" sodipodi:ry="212.85715" sodipodi:type="arc" d="m534.2857,840.5714a212.8572,212.8572,0,1,1,-425.7143,0,212.8572,212.8572,0,1,1,425.7143,0z" stroke-linejoin="miter" stroke-linecap="butt" transform="matrix(2.6013119,0,0,2.6013119,363.92531,-1448.2637)" stroke="#000" sodipodi:cy="840.57141" sodipodi:cx="321.42856" stroke-width="1.53768563" fill="none"/>
 </g>
 <g stroke-linejoin="miter" inkscape:groupmode="layer" stroke="#000" stroke-linecap="butt" stroke-width="4" inkscape:label="tracesteps.5" fill="none">
  <path d="m900.9488,271.843c13.75732,63.36693-82.65253,175.1017-186.8782,197.9899,58.86889,83.52872-11.454,278.4004-68.69037,275.7717,112.2931,35.74924,129.8014,211.3935,91.92388,297.9949,71.5222-3.5697,173.9135,104.872,197.9899,181.8275,113.0635-25.3765,218.5988-1.5492,264.66,64.6498,79.9494-83.948,178.7058-124.0127,307.0864-94.9544,34.852-78.0166,107.3546-138.463,181.8274-197.9898,2.478-81.72713-20.2165-156.1462,60.6091-260.6194-58.3198-3.01204-166.9445-226.1971-85.8629-288.9036-34.3579,55.41822-217.686-98.38204-198.7549-187.6433-50.2509,58.07318-267.7064,3.98291-283.5377-67.75747-10.9635,90.71271-217.7242,133.1101-280.3726,79.6342z" sodipodi:nodetypes="ccccccccccccc" inkscape:connector-curvature="0"/>
  <path d="M1516.904,151.0585c-155.897,115.0269-297.498,38.1789-342.164-103.5504-60.356,159.7934-208.7886,220.1985-348.7444,82.02027,68.64545,182.5832-89.23732,314.4162-236.9695,272.2654,129.4968,105.5664,81.81938,331.6226-94.45903,356.7962,201.7766,41.80927,201.9983,235.8369,105.8876,351.7751,217.4167-54.5853,312.387,108.17,262.8571,262.8572,119.5549-117.0878,308.5553-97.8154,360.1734,80,50.4184-167.6395,185.7455-257.3633,362.6838-108.5715-51.6824-136.7016-16.1483-298.6008,218.5714-287.1428-100.7509-64.31461-128.7639-228.5497,68.5714-330-126.4123-60.45265-197.1782-154.1485-117.212-337.8922-171.878,21.2707-282.3043-139.2444-239.1955-238.5574z" sodipodi:nodetypes="ccccccccccccc" inkscape:connector-curvature="0"/>
  <path d="M502.2188,760.5731,1880.067,728.2482" sodipodi:nodetypes="cc" inkscape:connector-curvature="0"/>
  <path d="M1175.939,56.65752,1216.346,1432.485" sodipodi:nodetypes="cc" inkscape:connector-curvature="0"/>
 </g>
</svg>
