<?xml version="1.0" encoding="UTF-8" standalone="no"?>
<!-- Created with Inkscape (http://www.inkscape.org/) -->
<svg xmlns:inkscape="http://www.inkscape.org/namespaces/inkscape" xmlns:rdf="http://www.w3.org/1999/02/22-rdf-syntax-ns#" xmlns="http://www.w3.org/2000/svg" xmlns:sodipodi="http://sodipodi.sourceforge.net/DTD/sodipodi-0.dtd" height="1583" width="2184" version="1.1" inkscape:version="0.48.4 r9939" xmlns:cc="http://creativecommons.org/ns#" xmlns:xlink="http://www.w3.org/1999/xlink" sodipodi:docname="CodBod8_trace028.svg" xmlns:dc="http://purl.org/dc/elements/1.1/">
 <sodipodi:namedview bordercolor="#666666" inkscape:pageshadow="2" inkscape:window-y="-8" fit-margin-left="0" pagecolor="#ffffff" inkscape:zoom="0.35" inkscape:window-maximized="1" inkscape:window-x="-8" showgrid="false" borderopacity="1.0" inkscape:current-layer="g3939" inkscape:cx="1019.5604" inkscape:cy="816.92023" inkscape:pageopacity="0.0" fit-margin-right="0" fit-margin-bottom="0" inkscape:window-height="738" fit-margin-top="0" inkscape:window-width="1280" inkscape:document-units="px"/>
 <metadata>
  <rdf:RDF>
   <cc:Work rdf:about="">
    <dc:format>image/svg+xml</dc:format>
    <dc:type rdf:resource="http://purl.org/dc/dcmitype/StillImage"/>
    <dc:title/>
   </cc:Work>
  </rdf:RDF>
 </metadata>
 <g inkscape:label="Layer 1" transform="translate(529.14288,107.70924)" inkscape:groupmode="layer" display="none">
  <image xlink:href="file:///C:/Users/Christine/Desktop/Figures/CB8%20f27.jpg" height="1583" width="2184" y="-107.7092" x="-529.1429"/>
 </g>
 <g inkscape:label="tracesteps.01" inkscape:groupmode="layer">
  <path sodipodi:rx="640" sodipodi:ry="618.57141" sodipodi:type="arc" d="m1454.286,773a640,618.5714,0,1,1,-1280,0,640,618.5714,0,1,1,1280,0z" sodipodi:cy="773" transform="matrix(1.0066323,0,0,1.0345757,-1.1149052,-48.155606)" stroke="#000" sodipodi:cx="814.28571" stroke-width="3.91961503" inkscape:label="circle(Α,Β,Γ,Δ,Ζ,Η,Ι,Μ,Ν,Ο,Τ,Χ)" fill="none">
   <desc>visible</desc>
  </path>
  <text style="word-spacing:0px;letter-spacing:0px;" font-family="Sans" xml:space="preserve" font-size="72px" font-style="normal" sodipodi:linespacing="125%" y="764.71429" x="51.428574" font-weight="normal" inkscape:label="label(Α)" line-height="125%" fill="#000000"><desc>visible</desc><tspan sodipodi:role="line" x="51.428574" y="764.71429">Α</tspan></text>
  <text style="word-spacing:0px;letter-spacing:0px;" font-family="Sans" xml:space="preserve" font-size="72px" font-style="normal" sodipodi:linespacing="125%" y="91.571426" x="800" font-weight="normal" inkscape:label="label(Β)" line-height="125%" fill="#000000"><desc>visible</desc><tspan sodipodi:role="line" x="800" y="91.571426">Β</tspan></text>
  <text style="word-spacing:0px;letter-spacing:0px;" font-family="Sans" xml:space="preserve" font-size="72px" font-style="normal" sodipodi:linespacing="125%" y="786.14288" x="1506.8571" font-weight="normal" inkscape:label="label(Γ)" line-height="125%" fill="#000000"><desc>visible</desc><tspan sodipodi:role="line" x="1506.8571" y="786.14288">Γ</tspan></text>
  <text style="word-spacing:0px;letter-spacing:0px;" font-family="Sans" xml:space="preserve" font-size="72px" font-style="normal" sodipodi:linespacing="125%" y="1515.8571" x="770.57141" font-weight="normal" inkscape:label="label(Δ)" line-height="125%" fill="#000000"><desc>visible</desc><tspan sodipodi:role="line" x="770.57141" y="1515.8571">Δ</tspan></text>
 </g>
 <g inkscape:groupmode="layer" stroke="#000" stroke-width="4" inkscape:label="tracesteps.02" fill="none">
  <path sodipodi:nodetypes="ccccccccccccccccccc" inkscape:label="polygon(Α,Β,Γ,Δ,Ζ,Η,Ι,Μ,Ν,Ο,Τ,Χ)" d="m1328.571,457.2857c16.9646,214.0514,156.1022,307.5974,148.5715,308.5714-106.6491,57.45209-274.9853,450.584-245.7143,491.4286-82.1749-34.4032-267.5464,103.5771-248.5715,122.8572-32.27303-31.6264-89.25843-34.7384-191.4286,14.2857-48.7162-28.2248-94.22526-58.8549-205.7143-40-49.7387-83.34-127.1173-125.001-197.1422-131.429,5.031-80.525-59.3892-152.076-74.9572-239.0721-41.7452-89.5502-58.3788-236.4983-133.6142-249.4993m1077.143-468.5715c28.5146,127.0928,63.5793,205.0596,102.8571,251.4286m-348.5714-380c60.8431,129.6264,156.425,140.1482,254.2857,142.8572m-1088.572,451.4285c160.4986-95.00187,254.0864-473.729,240-474.2857,28.9214-8.1229,251.4221-72.6051,222.8571-128.5714,16.8325,29.4805,156.7057,36.15233,174.2857-14.28572,59.3341,45.61365,124.1768,52.66734,194.2857,22.85714,29.3273,54.12642,88.554,120.9141,137.1429,108.5714" inkscape:connector-curvature="0">
   <desc>visible</desc>
  </path>
  <path inkscape:label="line(Γ)" d="M1477.143,763,808.552,749.6873">
   <desc>visible</desc>
  </path>
  <path inkscape:label="line(Α)" d="M808.552,749.6873,185.7143,737.2857">
   <desc>visible</desc>
  </path>
  <path inkscape:label="line(Β)" d="M817.1429,111.5714,803.2008,748.7218">
   <desc>visible</desc>
  </path>
  <path inkscape:label="line(Δ)" d="M803.2008,748.7218,788.5714,1417.286">
   <desc>visible</desc>
  </path>
 </g>
 <g inkscape:label="tracesteps.03" inkscape:groupmode="layer">
  <path d="m1322.857,1308.714c246.6667,5.8654,493.3333,1.0593,740,0m-591.4285,40,311.4285-642.8572,280,608.5715" stroke="#000" stroke-width="4" inkscape:label="cone(Ρ)" fill="none">
   <desc>visible</desc>
  </path>
  <text style="word-spacing:0px;letter-spacing:0px;" font-family="Sans" xml:space="preserve" font-size="72px" font-style="normal" sodipodi:linespacing="125%" y="1083.8571" x="1711.1429" font-weight="normal" inkscape:label="label(Ρ)" line-height="125%" fill="#000000"><desc>visible</desc><tspan sodipodi:role="line" x="1711.1429" y="1083.8571">Ρ</tspan></text>
 </g>
 <g inkscape:label="tracesteps.04" inkscape:groupmode="layer">
  <path d="M431.4286,260.1429,394.2857,1223" inkscape:connector-curvature="0" stroke="#000" stroke-width="4" inkscape:label="line(Ζ,Ν)" fill="none">
   <desc>visible</desc>
  </path>
  <path d="m585.7143,1351.571,60-1234.286" inkscape:connector-curvature="0" stroke="#000" stroke-width="4" inkscape:label="line(Η,Μ)" fill="none">
   <desc>visible</desc>
  </path>
  <path d="M1005.714,134.4286,968.5714,1380.143" inkscape:connector-curvature="0" stroke="#000" stroke-width="4" inkscape:label="line(Ι,Ο)" fill="none">
   <desc>visible</desc>
  </path>
  <path d="M1228.571,1254.429,1260,271.5714" inkscape:connector-curvature="0" stroke="#000" stroke-width="4" inkscape:label="line(Τ,Χ)" fill="none">
   <desc>visible,corr</desc>
  </path>
  <path d="m1311.429,891.5714-57.1429-382.8571c13.1872-33.6995,9.5451-73.00878,0-114.2857l5.714-114.2857" sodipodi:nodetypes="cccc" inkscape:connector-curvature="0" stroke="#000" stroke-width="4" inkscape:label="line(Τ,Χ)" fill="none">
   <desc>visible,sic</desc>
  </path>
  <text style="word-spacing:0px;letter-spacing:0px;" font-family="Sans" xml:space="preserve" font-size="72px" font-style="normal" sodipodi:linespacing="125%" y="280.14285" x="275.42856" font-weight="normal" inkscape:label="label(Ζ)" line-height="125%" fill="#000000"><desc>visible</desc><tspan sodipodi:role="line" x="275.42856" y="280.14285">Ζ</tspan></text>
  <text style="word-spacing:0px;letter-spacing:0px;" font-family="Sans" xml:space="preserve" font-size="72px" font-style="normal" sodipodi:linespacing="125%" y="94.428574" x="608.57141" font-weight="normal" inkscape:label="label(Η)" line-height="125%" fill="#000000"><desc>visible</desc><tspan sodipodi:role="line" x="608.57141" y="94.428574">Η</tspan></text>
  <text style="word-spacing:0px;letter-spacing:0px;" font-family="Sans" xml:space="preserve" font-size="72px" font-style="normal" sodipodi:linespacing="125%" y="1370.1429" x="355.42856" font-weight="normal" inkscape:label="label(Ν)" line-height="125%" fill="#000000"><desc>visible</desc><tspan sodipodi:role="line" x="355.42856" y="1370.1429">Ν</tspan></text>
  <text style="word-spacing:0px;letter-spacing:0px;" font-family="Sans" xml:space="preserve" font-size="72px" font-style="normal" sodipodi:linespacing="125%" y="1467.5714" x="555.71429" font-weight="normal" inkscape:label="label(Μ)" line-height="125%" fill="#000000"><desc>visible</desc><tspan sodipodi:role="line" x="555.71429" y="1467.5714">Μ</tspan></text>
  <text style="word-spacing:0px;letter-spacing:0px;" font-family="Sans" xml:space="preserve" font-size="72px" font-style="normal" sodipodi:linespacing="125%" y="1497.2856" x="961.14288" font-weight="normal" inkscape:label="label(Ι)" line-height="125%" fill="#000000"><desc>visible</desc><tspan sodipodi:role="line" x="961.14288" y="1497.2856">Ι</tspan></text>
  <text style="word-spacing:0px;letter-spacing:0px;" font-family="Sans" xml:space="preserve" font-size="72px" font-style="normal" sodipodi:linespacing="125%" y="1363" x="1220" font-weight="normal" inkscape:label="label(Χ)" line-height="125%" fill="#000000"><desc>visible</desc><tspan sodipodi:role="line" x="1220" y="1363">Χ</tspan></text>
  <text style="word-spacing:0px;letter-spacing:0px;" font-family="Sans" xml:space="preserve" font-size="72px" font-style="normal" sodipodi:linespacing="125%" y="100.14286" x="1007.4286" font-weight="normal" inkscape:label="label(Ο)" line-height="125%" fill="#000000"><desc>visible</desc><tspan sodipodi:role="line" x="1007.4286" y="100.14286">Ο</tspan></text>
  <text style="word-spacing:0px;letter-spacing:0px;" font-family="Sans" xml:space="preserve" font-size="72px" font-style="normal" sodipodi:linespacing="125%" y="221.28571" x="1248.5714" font-weight="normal" inkscape:label="label(Τ)" line-height="125%" fill="#000000"><desc>visible</desc><tspan sodipodi:role="line" x="1248.5714" y="221.28571">Τ</tspan></text>
 </g>
 <g inkscape:groupmode="layer" stroke="#000" stroke-width="4" inkscape:label="tracesteps.05" fill="none">
  <path inkscape:label="line(Ζ)" d="M417.1429,257.2857,823.8833,759.3115">
   <desc>visible</desc>
  </path>
  <path inkscape:label="line(Χ)" d="M823.8833,759.3115,1234.286,1265.857">
   <desc>visible</desc>
  </path>
  <path inkscape:label="line(Τ)" d="M1254.286,277.2857,815.1342,755.4409">
   <desc>visible</desc>
  </path>
  <path inkscape:label="line(Ν)" d="M815.1342,755.4409,385.7143,1223">
   <desc>visible</desc>
  </path>
  <path inkscape:label="line(Μ)" d="M577.1429,1345.857,802.9947,717.3352">
   <desc>visible</desc>
  </path>
  <path inkscape:label="line(Ο)" d="M802.9947,717.3352,1011.429,137.2857">
   <desc>visible</desc>
  </path>
  <path inkscape:label="line(Η)" d="M637.1429,117.2857,801.2723,706.2988">
   <desc>visible</desc>
  </path>
  <path inkscape:label="line(Ι)" d="M801.2723,706.2988,991.4286,1388.714">
   <desc>visible</desc>
  </path>
 </g>
</svg>
