<?xml version="1.0" encoding="UTF-8" standalone="no"?>
<!-- Created with Inkscape (http://www.inkscape.org/) -->
<svg xmlns:inkscape="http://www.inkscape.org/namespaces/inkscape" xmlns:rdf="http://www.w3.org/1999/02/22-rdf-syntax-ns#" xmlns="http://www.w3.org/2000/svg" inkscape:version="0.48.4 r9939" height="1569" width="2999" version="1.1" xmlns:cc="http://creativecommons.org/ns#" xmlns:dc="http://purl.org/dc/elements/1.1/" sodipodi:docname="CodBod8_trace032.svg" xmlns:sodipodi="http://sodipodi.sourceforge.net/DTD/sodipodi-0.dtd">
 <sodipodi:namedview bordercolor="#666666" inkscape:pageshadow="2" inkscape:window-y="-8" fit-margin-left="0" pagecolor="#ffffff" inkscape:zoom="0.18491211" inkscape:window-maximized="1" inkscape:window-x="-8" showgrid="false" borderopacity="1.0" inkscape:current-layer="g47998" inkscape:cx="811.26212" inkscape:cy="844.96286" inkscape:pageopacity="0.0" fit-margin-right="0" fit-margin-bottom="0" inkscape:window-height="738" fit-margin-top="0" inkscape:window-width="1280" inkscape:document-units="px"/>
 <metadata>
  <rdf:RDF>
   <cc:Work rdf:about="">
    <dc:format>image/svg+xml</dc:format>
    <dc:type rdf:resource="http://purl.org/dc/dcmitype/StillImage"/>
    <dc:title/>
   </cc:Work>
  </rdf:RDF>
 </metadata>
 <g inkscape:label="tracesteps.01" inkscape:groupmode="layer">
  <path sodipodi:rx="562.85712" sodipodi:ry="548.57141" sodipodi:type="arc" d="m1994.286,751.8571a562.8571,548.5714,0,1,1,-1125.714,0,562.8571,548.5714,0,1,1,1125.714,0z" sodipodi:cy="751.85712" transform="matrix(0.99742978,0,0,1.0208004,13.679086,-27.067461)" stroke="#000" sodipodi:cx="1431.4286" stroke-width="3.96413476" inkscape:label="circle(Α,Β,Γ,Δ,Κ,Σ)" fill="none">
   <desc>visible</desc>
  </path>
  <text style="word-spacing:0px;letter-spacing:0px;" font-family="Sans" sodipodi:linespacing="125%" font-size="72px" font-style="normal" xml:space="preserve" y="694.71429" x="976.57141" font-weight="normal" inkscape:label="label(Α)" line-height="125%" fill="#000000"><desc>visible</desc><tspan sodipodi:role="line" x="976.57141" y="694.71429">Α</tspan></text>
  <text style="word-spacing:0px;letter-spacing:0px;" font-family="Sans" sodipodi:linespacing="125%" font-size="72px" font-style="normal" xml:space="preserve" y="355.85715" x="1476.2856" font-weight="normal" inkscape:label="label(Β)" line-height="125%" fill="#000000"><desc>visible</desc><tspan sodipodi:role="line" x="1476.2856" y="355.85715">Β</tspan></text>
  <text style="word-spacing:0px;letter-spacing:0px;" font-family="Sans" sodipodi:linespacing="125%" font-size="72px" font-style="normal" xml:space="preserve" y="720.71429" x="1868.5714" font-weight="normal" inkscape:label="label(Γ)" line-height="125%" fill="#000000"><desc>visible</desc><tspan sodipodi:role="line" x="1868.5714" y="720.71429">Γ</tspan></text>
  <text style="word-spacing:0px;letter-spacing:0px;" font-family="Sans" sodipodi:linespacing="125%" font-size="72px" font-style="normal" xml:space="preserve" y="1169" x="1484" font-weight="normal" inkscape:label="label(Δ)" line-height="125%" fill="#000000"><desc>visible</desc><tspan sodipodi:role="line" x="1484" y="1169">Δ</tspan></text>
 </g>
 <g inkscape:groupmode="layer" stroke="#000" stroke-width="4" inkscape:label="tracesteps.02" fill="none">
  <path sodipodi:nodetypes="ccccccccccccc" inkscape:label="polygon(Α,Β,Γ,Δ,Κ,Π)" d="m937.1429,997.5714c41.63451-56.36861,279.8142,85.9405,188.5714,220,46.5209-12.4544,247.4684-33.5388,317.1428,88.5715,6.8537-52.8303,162.4176-205.8752,302.8572-94.2858-39.0681-45.9142,24.9669-293.2054,185.7143-194.2857-88.4416-64.32333-49.2038-257.6871,85.7143-262.8571-30.318,40.0786-192.888-184.6951-82.856-285.7129-88.602,34.5191-304.832-54.2764-214.286-214.2857-36.6741,88.85906-274.7265,32.12612-308.5714-71.42858,16.6034,103.1891-172.5176,196.914-305.7143,111.4286,40.2567,51.42724-52.6345,218.1114-162.8572,202.8571,45.24725,23.39495,35.74756,197.546-59.16357,207.979,157.7629,9.27493,66.94991,306.6509,53.44847,292.0196z" inkscape:connector-curvature="0">
   <desc>visible,corr</desc>
  </path>
  <path sodipodi:nodetypes="cc" inkscape:label="polygon(Α,Β,Γ,Δ,Κ,Π)" d="m885.715,706.144c94.9848,5.8156,106.8714,44.87048,128.5714,80" inkscape:connector-curvature="0">
   <desc>visible,sic</desc>
  </path>
 </g>
 <g inkscape:groupmode="layer" stroke="#000" stroke-width="4" inkscape:label="tracesteps.03" fill="none">
  <path sodipodi:nodetypes="cccccccccccccccccccc" inkscape:label="polygon(Ε,Θ,Λ,Ν,Σ)" d="m2117.143,469.0003c-311.3057,93.31139,36.5553,354.8488,104.2857,331.4286-336.7843,87.13564-230.0724,121.3682-167.143,335.714-318.8691-111.7134-228.4867,131.9399-245.7143,261.4285-229.7355-272.8961-297.4547,10.62-345.7143,80-6.5136-220.8194-269.1816-221.4902-355.7143-157.1428m272.8569,97.1427c27.011-245.559-354.805-102.545-420-57.142,207.255-170.454,46.618-365.1872-224.5308-298.817,242.0008-133.7933,196.0431-378.748-69.7563-301.1841m2.8571-20.0003c52.55993-4.5716,168.979-57.83743,217.375-127.3785,4.2892-68.84908-42.37694-131.1056-103.4667-191.496l-65.3368-26.8398m68.5718,8.57141c346.3837,104.7024,264.3087-244.847,271.4287-340,155.502,262.0282,361.306,59.06849,397.143-22.85714,95.8977,228.9864,334.4129,153.9784,413.8175,93.71494-122.517,281.8782,138.0651,300.9783,254.7536,257.7135-35.82,31.94259-86.5366,70.88498-86.8977,112.9587" inkscape:connector-curvature="0">
   <desc>visible,corr</desc>
  </path>
  <path d="m1712.857,1326.143c10.5902-22.4462-14.6474-24.4192-28.5715-32.8572m361.4286-208.5714c-19.612-14.7325-19.2819-36.1124-28.5714-54.2857m-17.144-137.1433c-3.8731-1.47485-21.9644,55.88764,2.8572,64.28572m-34.2857,158.5715c-19.3809-13.3225-121.4449-5.5871-141.4287,60m-445.7142,240c13.4221-40.5298-1.7785-82.868-37.1429-67.1429m-251.4285-4.2857c-6.6481-13.1397,68.4836-43.9203,84.2857-47.1429m-204.2857,67.1429c68.5727-30.104,137.1437-51.442,205.7147-74.285m698.572-1127.143c-35.8371,27.82742-38.6548,116.6194-30,144.2857m-324.286-272.8572c-55.4933,230.1752,302.7816,181.0135,334.2854,71.42857m105.7141,1031.429c-72.922-28.755-166.028-8.081-142.857,168.572" inkscape:connector-curvature="0" stroke-dashoffset="0" stroke-miterlimit="4" stroke-dasharray="none" inkscape:label="polygon(Ε,Θ,Λ,Ν,Σ)">
   <desc>visible,sic</desc>
  </path>
 </g>
 <g inkscape:label="tracesteps.04" inkscape:groupmode="layer">
  <path d="M877.1429,703.2857,2011.429,754.7143" inkscape:connector-curvature="0" stroke="#000" stroke-width="4" inkscape:label="line(Α,Γ)" fill="none">
   <desc>visible</desc>
  </path>
  <path d="m1417.143,174.7143,28.5714,1125.714" inkscape:connector-curvature="0" stroke="#000" stroke-width="4" inkscape:label="line(Β,Δ)" fill="none">
   <desc>visible</desc>
  </path>
  <path d="m1445.714,1300.429,17.1428,162.8571" inkscape:connector-curvature="0" stroke="#000" stroke-width="4" inkscape:label="line(Δ,Θ)" fill="none">
   <desc>visible</desc>
  </path>
  <text style="word-spacing:0px;letter-spacing:0px;" font-family="Sans" sodipodi:linespacing="125%" font-size="72px" font-style="normal" xml:space="preserve" y="800.42859" x="614.28571" font-weight="normal" inkscape:label="label(Ε)" line-height="125%" fill="#000000"><desc>visible</desc><tspan sodipodi:role="line" x="614.28571" y="800.42859">Ε</tspan></text>
  <text style="word-spacing:0px;letter-spacing:0px;" font-family="Sans" sodipodi:linespacing="125%" font-size="72px" font-style="normal" xml:space="preserve" y="1357.5714" x="1474.2856" font-weight="normal" inkscape:label="label(Θ)" line-height="125%" fill="#000000"><desc>visible</desc><tspan sodipodi:role="line" x="1474.2856" y="1357.5714">Θ</tspan></text>
  <text style="word-spacing:0px;letter-spacing:0px;" font-family="Sans" sodipodi:linespacing="125%" font-size="72px" font-style="normal" xml:space="preserve" y="866.14288" x="2217.1428" font-weight="normal" inkscape:label="label(Ν)" line-height="125%" fill="#000000"><desc>visible</desc><tspan sodipodi:role="line" x="2217.1428" y="866.14288">Ν</tspan></text>
 </g>
 <g font-size="72px" font-family="Sans" inkscape:groupmode="layer" font-weight="normal" inkscape:label="tracesteps.05" font-style="normal" fill="#000">
  <text style="word-spacing:0px;letter-spacing:0px;" xml:space="preserve" line-height="125%" y="474.71429" x="714.28571" inkscape:label="label(Λ)" sodipodi:linespacing="125%"><desc>visible</desc><tspan sodipodi:role="line" x="714.28571" y="474.71429">Λ</tspan></text>
  <text style="word-spacing:0px;letter-spacing:0px;" xml:space="preserve" line-height="125%" y="560.42859" x="1000" inkscape:label="label(Κ)" sodipodi:linespacing="125%"><desc>visible,corr</desc><tspan sodipodi:role="line" x="1000" y="560.42859">Κ</tspan></text>
  <text style="word-spacing:0px;letter-spacing:0px;" xml:space="preserve" line-height="125%" y="403.28571" x="1134.2856" inkscape:label="label(Κ)" sodipodi:linespacing="125%"><desc>visible,sic,del</desc><tspan sodipodi:role="line" x="1134.2856" y="403.28571">Κ</tspan></text>
 </g>
 <g inkscape:label="tracesteps.06" inkscape:groupmode="layer">
  <path sodipodi:rx="295.71429" sodipodi:ry="284.28571" sodipodi:type="arc" d="m722.8572,581.8571a295.7143,284.2857,0,1,1,-591.4286,0,295.7143,284.2857,0,1,1,591.4286,0z" sodipodi:cy="581.85712" transform="matrix(0.99989949,0,0,1.0300462,0.04293153,-26.054027)" stroke="#000" sodipodi:cx="427.14285" stroke-width="3.9414268" inkscape:label="circle(Μ)" fill="none">
   <desc>visible</desc>
  </path>
  <text style="word-spacing:0px;letter-spacing:0px;" font-family="Sans" sodipodi:linespacing="125%" font-size="72px" font-style="normal" xml:space="preserve" y="484.14285" x="368" font-weight="normal" inkscape:label="label(Μ)" line-height="125%" fill="#000000"><desc>visible</desc><tspan sodipodi:role="line" x="368" y="484.14285">Μ</tspan></text>
 </g>
 <g inkscape:label="tracesteps.07" inkscape:groupmode="layer">
  <path sodipodi:rx="297.14285" sodipodi:ry="292.85715" sodipodi:type="arc" d="m2717.143,550.4286a297.1428,292.8572,0,1,1,-594.2858,0,297.1428,292.8572,0,1,1,594.2858,0z" sodipodi:cy="550.42859" transform="matrix(0.99995126,0,0,1.0145847,0.1179513,-12.313546)" stroke="#000" sodipodi:cx="2420" stroke-width="3.97124262" inkscape:label="circle(Ν)" fill="none">
   <desc>visible</desc>
  </path>
  <text style="word-spacing:0px;letter-spacing:0px;" font-family="Sans" sodipodi:linespacing="125%" font-size="72px" font-style="normal" xml:space="preserve" y="503.85715" x="2402" font-weight="normal" inkscape:label="label(Ν)" line-height="125%" fill="#000000"><desc>visible</desc><tspan sodipodi:role="line" x="2402" y="503.85715">Ν</tspan></text>
 </g>
 <g inkscape:label="tracesteps.08" inkscape:groupmode="layer">
  <path d="m238.4796,1489.989c-14.01704-10.0299-27.18185-21.4297-39.24808-34.1596-77.80689-77.8844-106.0442-204.4472-68.53955-310.3313,37.9237-114.5161,147.2817-196.2821,262.384-199.1267,113.1712-6.10383,226.3089,63.98229,274.1125,172.178,17.85086,39.2382,27.14392,82.686,27.08772,126.1649,1.48251,115.9176-69.6645,226.684-170.6488,272.1878" inkscape:connector-curvature="0" stroke="#000" stroke-width="4" inkscape:label="circle(Ξ)" fill="none">
   <desc>visible</desc>
  </path>
  <text style="word-spacing:0px;letter-spacing:0px;" font-family="Sans" sodipodi:linespacing="125%" font-size="72px" font-style="normal" xml:space="preserve" y="1267" x="386" font-weight="normal" inkscape:label="label(Ξ)" line-height="125%" fill="#000000"><desc>visible</desc><tspan sodipodi:role="line" x="386" y="1267">Ξ</tspan></text>
  <path sodipodi:rx="274.28571" sodipodi:ry="268.57144" sodipodi:type="arc" d="m2651.428,1226.143a274.2857,268.5714,0,1,1,-548.5714,0,274.2857,268.5714,0,1,1,548.5714,0z" sodipodi:cy="1226.1428" transform="matrix(0.9999234,0,0,1.0211984,0.18208487,-31.706511)" stroke="#000" sodipodi:cx="2377.1428" stroke-width="3.95841718000000010" inkscape:label="circle(Ο)" fill="none">
   <desc>visible</desc>
  </path>
  <text style="word-spacing:0px;letter-spacing:0px;" font-family="Sans" sodipodi:linespacing="125%" font-size="72px" font-style="normal" xml:space="preserve" y="1250.1429" x="2348.5713" font-weight="normal" inkscape:label="label(Ο)" line-height="125%" fill="#000000"><desc>visible</desc><tspan sodipodi:role="line" x="2348.5713" y="1250.1429">Ο</tspan></text>
  <path sodipodi:rx="3.5714285" sodipodi:ry="3.5714285" sodipodi:type="arc" d="m2378.571,1221.143a3.571428,3.571428,0,1,1,-7.1428,0,3.571428,3.571428,0,1,1,7.1428,0z" sodipodi:cy="1221.1428" transform="translate(2,2)" stroke="#000" sodipodi:cx="2375" stroke-width="4" inkscape:label="tick(Ο)" fill="#000">
   <desc>visible</desc>
  </path>
 </g>
 <g font-size="72px" font-family="Sans" inkscape:groupmode="layer" font-weight="normal" inkscape:label="unspecified" font-style="normal" fill="#000">
  <text style="word-spacing:0px;letter-spacing:0px;" xml:space="preserve" line-height="125%" y="599.25354" x="759.6347" inkscape:label="label(Σ)" sodipodi:linespacing="125%"><desc>visible</desc><tspan sodipodi:role="line" x="759.6347" y="599.25354">Σ</tspan></text>
  <text style="word-spacing:0px;letter-spacing:0px;" xml:space="preserve" line-height="125%" y="629.47693" x="985.94946" inkscape:label="label(Π)" sodipodi:linespacing="125%"><desc>visible,corr</desc><tspan sodipodi:role="line" x="985.94946" y="629.47693">Π</tspan></text>
  <text style="word-spacing:0px;letter-spacing:0px;" xml:space="preserve" line-height="125%" y="502.2789" x="1062.7008" inkscape:label="label(Π)" sodipodi:linespacing="125%"><desc>visible,sic,del</desc><tspan sodipodi:role="line" x="1062.7008" y="502.2789">Π</tspan></text>
 </g>
</svg>
