<?xml version="1.0" encoding="UTF-8" standalone="no"?>
<!-- Created with Inkscape (http://www.inkscape.org/) -->
<svg xmlns:inkscape="http://www.inkscape.org/namespaces/inkscape" xmlns:rdf="http://www.w3.org/1999/02/22-rdf-syntax-ns#" xmlns="http://www.w3.org/2000/svg" inkscape:version="0.48.4 r9939" height="1515" width="3306" version="1.1" xmlns:cc="http://creativecommons.org/ns#" xmlns:dc="http://purl.org/dc/elements/1.1/" sodipodi:docname="CodBod8_trace026.svg" xmlns:sodipodi="http://sodipodi.sourceforge.net/DTD/sodipodi-0.dtd">
 <sodipodi:namedview bordercolor="#666666" inkscape:pageshadow="2" inkscape:window-y="-8" fit-margin-left="0" pagecolor="#ffffff" inkscape:zoom="0.18491211" inkscape:window-maximized="1" inkscape:window-x="-8" showgrid="false" borderopacity="1.0" inkscape:current-layer="g46116" inkscape:cx="906.04242" inkscape:cy="781.88406" inkscape:pageopacity="0.0" fit-margin-right="0" fit-margin-bottom="0" inkscape:window-height="738" fit-margin-top="0" inkscape:window-width="1280" inkscape:document-units="px"/>
 <metadata>
  <rdf:RDF>
   <cc:Work rdf:about="">
    <dc:format>image/svg+xml</dc:format>
    <dc:type rdf:resource="http://purl.org/dc/dcmitype/StillImage"/>
    <dc:title/>
   </cc:Work>
  </rdf:RDF>
 </metadata>
 <g inkscape:label="tracesteps.01" inkscape:groupmode="layer">
  <path d="m1285.731,796.4286c3.1599,231.1461-143.3622,453.7236-353.3757,541.018-208.7495,92.3093-471.1634,54.4239-632.2565-109.4537-161.4081-155.807-215.2829-421.9036-136.4357-633.4496,76.5561-219.6811,303.3609-367.7047,532.5426-373.4155,225.0426-11.91336,436.7802,113.3625,532.4705,320.7426,37.6349,79.02089,57.1712,166.7696,57.0551,254.5581z" sodipodi:nodetypes="ccccccc" inkscape:connector-curvature="0" stroke="#000" stroke-width="3.96598959" inkscape:label="circle(Α,Β,Γ,Γ,Ε,Ζ,Η,Θ,Κ,Λ,Μ,Ν)" fill="none">
   <desc>visible</desc>
  </path>
  <text style="word-spacing:0px;letter-spacing:0px;" font-family="Sans" xml:space="preserve" font-size="72px" font-style="normal" sodipodi:linespacing="125%" y="803.57141" x="28.571428" font-weight="normal" inkscape:label="label(Α)" line-height="125%" fill="#000000"><desc>visible</desc><tspan sodipodi:role="line" x="28.571428" y="803.57141">Α</tspan></text>
  <text style="word-spacing:0px;letter-spacing:0px;" font-family="Sans" xml:space="preserve" font-size="72px" font-style="normal" sodipodi:linespacing="125%" y="832.14288" x="1334.2856" font-weight="normal" inkscape:label="label(Β)" line-height="125%" fill="#000000"><desc>visible</desc><tspan sodipodi:role="line" x="1334.2856" y="832.14288">Β</tspan></text>
  <text style="word-spacing:0px;letter-spacing:0px;" font-family="Sans" xml:space="preserve" font-size="72px" font-style="normal" sodipodi:linespacing="125%" y="192.14285" x="711.42859" font-weight="normal" inkscape:label="label(Γ)[1]" line-height="125%" fill="#000000"><desc>visible</desc><tspan sodipodi:role="line" x="711.42859" y="192.14285">Γ</tspan></text>
  <text style="word-spacing:0px;letter-spacing:0px;" font-family="Sans" xml:space="preserve" font-size="72px" font-style="normal" sodipodi:linespacing="125%" y="1473.5714" x="678" font-weight="normal" inkscape:label="label(Γ)[2]" line-height="125%" fill="#000000"><desc>visible</desc><tspan sodipodi:role="line" x="678" y="1473.5714">Γ</tspan></text>
 </g>
 <g inkscape:label="tracesteps.02" inkscape:groupmode="layer">
  <path d="m1188.571,449.2857c-89.0385-27.43453-171.174-69.66106-222.8571-177.1428-18.70113,21.11219-92.40554,30.63169-191.553-25.64692-31.43944-6.15552-28.48387-18.98812-45.58988-25.78165-73.84735,35.12494-185.5786,56.33174-237.1429,42.85714-80.42246,97.90426-162.5293,153.3118-242.8571,182.8571-32.95689,200.5195-79.90515,240.1384-122.8571,325.7143,80.47767,50.61997,96.88155,219.53,108.5714,397.1428,44.2342-10.0676,162.7361,49.2367,234.2857,180,18.09525-1.7659,28.34117-30.3697,123.5675,11.2485l85.00389,31.6087c38.1692-35.5192,89.23563-66.9113,260-60,68.41964-106.6205,147.9013-181.8986,248.5714-197.1429-23.3231,24.4369-9.9248-183.6716,102.8571-334.2857l-47.4573-71.80093-46.2122-185.9421-3.4733-76.54268" sodipodi:nodetypes="ccccccccccccccccc" inkscape:connector-curvature="0" stroke="#000" stroke-width="4" inkscape:label="polygon(Α,Β,Γ,Γ,Ε,Ζ,Η,Θ,Κ,Λ,Μ,Ν)" fill="none">
   <desc>visible</desc>
  </path>
 </g>
 <g inkscape:label="tracesteps.03" inkscape:groupmode="layer">
  <path d="m251.4286,443.5714-5.71428,722.8572" inkscape:connector-curvature="0" stroke="#000" stroke-width="4" inkscape:label="line(Ε,Ζ)" fill="none">
   <desc>visible</desc>
  </path>
  <path d="M491.4286,249.2857,468.5714,1352.143" inkscape:connector-curvature="0" stroke="#000" stroke-width="4" inkscape:label="line(Η,Θ)" fill="none">
   <desc>visible</desc>
  </path>
  <path d="m731.4286,215-17.14286,948.5714c-14.10029,49.8694-24.94366,122.5373-31.42857,225.7143" sodipodi:nodetypes="ccc" inkscape:connector-curvature="0" stroke="#000" stroke-width="4" inkscape:label="line(Γ,Γ)" fill="none">
   <desc>visible</desc>
  </path>
  <path d="M962.8571,269.2857,937.1429,1340.714" inkscape:connector-curvature="0" stroke="#000" stroke-width="4" inkscape:label="line(Κ,Λ)" fill="none">
   <desc>visible</desc>
  </path>
  <path d="M1191.429,463.5714,1168.571,1135" inkscape:connector-curvature="0" stroke="#000" stroke-width="4" inkscape:label="line(Μ,Ν)" fill="none">
   <desc>visible</desc>
  </path>
  <text style="word-spacing:0px;letter-spacing:0px;" font-family="Sans" xml:space="preserve" font-size="72px" font-style="normal" sodipodi:linespacing="125%" y="455" x="174.28571" font-weight="normal" inkscape:label="label(Ε)" line-height="125%" fill="#000000"><desc>visible</desc><tspan sodipodi:role="line" x="174.28571" y="455">Ε</tspan></text>
  <text style="word-spacing:0px;letter-spacing:0px;" font-family="Sans" xml:space="preserve" font-size="72px" font-style="normal" sodipodi:linespacing="125%" y="237.85715" x="457.14285" font-weight="normal" inkscape:label="label(Η)" line-height="125%" fill="#000000"><desc>visible</desc><tspan sodipodi:role="line" x="457.14285" y="237.85715">Η</tspan></text>
  <text style="word-spacing:0px;letter-spacing:0px;" font-family="Sans" xml:space="preserve" font-size="72px" font-style="normal" sodipodi:linespacing="125%" y="235" x="982.28571" font-weight="normal" inkscape:label="label(Κ)" line-height="125%" fill="#000000"><desc>visible</desc><tspan sodipodi:role="line" x="982.28571" y="235">Κ</tspan></text>
  <text style="word-spacing:0px;letter-spacing:0px;" font-family="Sans" xml:space="preserve" font-size="72px" font-style="normal" sodipodi:linespacing="125%" y="457.28571" x="1205.7144" font-weight="normal" inkscape:label="label(Μ)" line-height="125%" fill="#000000"><desc>visible</desc><tspan sodipodi:role="line" x="1205.7144" y="457.28571">Μ</tspan></text>
  <text style="word-spacing:0px;letter-spacing:0px;" font-family="Sans" xml:space="preserve" font-size="72px" font-style="normal" sodipodi:linespacing="125%" y="1183.5714" x="1202.8571" font-weight="normal" inkscape:label="label(Ν)" line-height="125%" fill="#000000"><desc>visible</desc><tspan sodipodi:role="line" x="1202.8571" y="1183.5714">Ν</tspan></text>
  <text style="word-spacing:0px;letter-spacing:0px;" font-family="Sans" xml:space="preserve" font-size="72px" font-style="normal" sodipodi:linespacing="125%" y="1409.2856" x="942.85712" font-weight="normal" inkscape:label="label(Λ)" line-height="125%" fill="#000000"><desc>visible</desc><tspan sodipodi:role="line" x="942.85712" y="1409.2856">Λ</tspan></text>
  <text style="word-spacing:0px;letter-spacing:0px;" font-family="Sans" xml:space="preserve" font-size="72px" font-style="normal" sodipodi:linespacing="125%" y="1412.1429" x="420" font-weight="normal" inkscape:label="label(Θ)" line-height="125%" fill="#000000"><desc>visible</desc><tspan sodipodi:role="line" x="420" y="1412.1429">Θ</tspan></text>
  <text style="word-spacing:0px;letter-spacing:0px;" font-family="Sans" xml:space="preserve" font-size="72px" font-style="normal" sodipodi:linespacing="125%" y="1240.7144" x="165.71429" font-weight="normal" inkscape:label="label(Ζ)" line-height="125%" fill="#000000"><desc>visible</desc><tspan sodipodi:role="line" x="165.71429" y="1240.7144">Ζ</tspan></text>
 </g>
 <g inkscape:label="tracesteps.04" inkscape:groupmode="layer">
  <path sodipodi:rx="332.85715" sodipodi:ry="332.85715" sodipodi:type="arc" d="m2037.143,419.2857a332.8572,332.8572,0,1,1,-665.7143,0,332.8572,332.8572,0,1,1,665.7143,0z" sodipodi:cy="419.28571" transform="matrix(0.99996167,0,0,1.0128372,0.06532161,-9.6681723)" stroke="#000" sodipodi:cx="1704.2858" stroke-width="3.97464635" inkscape:label="circle(Ξ)" fill="none">
   <desc>visible</desc>
  </path>
  <text style="word-spacing:0px;letter-spacing:0px;" font-family="Sans" xml:space="preserve" font-size="72px" font-style="normal" sodipodi:linespacing="125%" y="430.71429" x="1680" font-weight="normal" inkscape:label="label(Ξ)" line-height="125%" fill="#000000"><desc>visible</desc><tspan sodipodi:role="line" x="1680" y="430.71429">Ξ</tspan></text>
 </g>
 <g inkscape:label="tracesteps.05" inkscape:groupmode="layer">
  <path sodipodi:rx="217.14285" sodipodi:ry="212.85715" sodipodi:type="arc" d="m2557.143,322.1428a217.1428,212.8572,0,1,1,-434.2858,0,217.1428,212.8572,0,1,1,434.2858,0z" sodipodi:cy="322.14285" stroke="#000" sodipodi:cx="2340" stroke-width="4" inkscape:label="circle(Ο)" fill="none">
   <desc>visible</desc>
  </path>
  <path sodipodi:rx="210" sodipodi:ry="214.28572" sodipodi:type="arc" d="m3114.286,252.1428a210,214.2857,0,1,1,-420,0,210,214.2857,0,1,1,420,0z" sodipodi:cy="252.14285" stroke="#000" sodipodi:cx="2904.2856" stroke-width="4" inkscape:label="circle(Π)" fill="none">
   <desc>visible</desc>
  </path>
  <path sodipodi:rx="207.14285" sodipodi:ry="211.42857" sodipodi:type="arc" d="m2545.714,863.5714a207.1428,211.4286,0,1,1,-414.2857,0,207.1428,211.4286,0,1,1,414.2857,0z" sodipodi:cy="863.57141" stroke="#000" sodipodi:cx="2338.5715" stroke-width="4" inkscape:label="circle(Ρ)" fill="none">
   <desc>visible</desc>
  </path>
  <path sodipodi:rx="208.57143" sodipodi:ry="202.85715" sodipodi:type="arc" d="m3194.286,872.1429a208.5714,202.8572,0,1,1,-417.1429,0,208.5714,202.8572,0,1,1,417.1429,0z" sodipodi:cy="872.14288" stroke="#000" sodipodi:cx="2985.7144" stroke-width="4" inkscape:label="circle(Σ)" fill="none">
   <desc>visible</desc>
  </path>
  <path sodipodi:rx="230" sodipodi:ry="224.28572" sodipodi:type="arc" d="m1888.571,1142.143a230,224.2857,0,1,1,-460,0,230,224.2857,0,1,1,460,0z" sodipodi:cy="1142.1428" transform="matrix(0.98763134,0,0,1.0000551,23.371439,-0.06290286)" stroke="#000" sodipodi:cx="1658.5714" stroke-width="4.0248583" inkscape:label="circle(Τ)" fill="none">
   <desc>visible</desc>
  </path>
  <path sodipodi:rx="211.42857" sodipodi:ry="208.57143" sodipodi:type="arc" d="m2851.429,1229.286a211.4286,208.5714,0,1,1,-422.8572,0,211.4286,208.5714,0,1,1,422.8572,0z" sodipodi:cy="1229.2858" transform="matrix(0.98655001,0,0,1.0000644,38.365105,-0.07916339)" stroke="#000" sodipodi:cx="2640" stroke-width="4.02704474" inkscape:label="circle(Υ)" fill="none">
   <desc>visible</desc>
  </path>
  <text style="word-spacing:0px;letter-spacing:0px;" font-family="Sans" xml:space="preserve" font-size="72px" font-style="normal" sodipodi:linespacing="125%" y="1172.1429" x="1651.4286" font-weight="normal" inkscape:label="label(Τ)" line-height="125%" fill="#000000"><desc>visible</desc><tspan sodipodi:role="line" x="1651.4286" y="1172.1429">Τ</tspan></text>
  <text style="word-spacing:0px;letter-spacing:0px;" font-family="Sans" xml:space="preserve" font-size="72px" font-style="normal" sodipodi:linespacing="125%" y="352.14285" x="2322.8572" font-weight="normal" inkscape:label="label(Ο)" line-height="125%" fill="#000000"><desc>visible</desc><tspan sodipodi:role="line" x="2322.8572" y="352.14285">Ο</tspan></text>
  <text style="word-spacing:0px;letter-spacing:0px;" font-family="Sans" xml:space="preserve" font-size="72px" font-style="normal" sodipodi:linespacing="125%" y="255" x="2880" font-weight="normal" inkscape:label="label(Π)" line-height="125%" fill="#000000"><desc>visible</desc><tspan sodipodi:role="line" x="2880" y="255">Π</tspan></text>
  <text style="word-spacing:0px;letter-spacing:0px;" font-family="Sans" xml:space="preserve" font-size="72px" font-style="normal" sodipodi:linespacing="125%" y="917.85712" x="2328.5713" font-weight="normal" inkscape:label="label(Ρ)" line-height="125%" fill="#000000"><desc>visible</desc><tspan sodipodi:role="line" x="2328.5713" y="917.85712">Ρ</tspan></text>
  <text style="word-spacing:0px;letter-spacing:0px;" font-family="Sans" xml:space="preserve" font-size="72px" font-style="normal" sodipodi:linespacing="125%" y="1252.1429" x="2622.8572" font-weight="normal" inkscape:label="label(Υ)" line-height="125%" fill="#000000"><desc>visible</desc><tspan sodipodi:role="line" x="2622.8572" y="1252.1429">Υ</tspan></text>
  <text style="word-spacing:0px;letter-spacing:0px;" font-family="Sans" xml:space="preserve" font-size="72px" font-style="normal" sodipodi:linespacing="125%" y="897.85712" x="2977.1428" font-weight="normal" inkscape:label="label(Σ)" line-height="125%" fill="#000000"><desc>visible</desc><tspan sodipodi:role="line" x="2977.1428" y="897.85712">Σ</tspan></text>
 </g>
 <g inkscape:label="unspecified" inkscape:groupmode="layer">
  <path d="m120,772.1429,588.5714,20c162.0687-5.62508,288.2549-0.99799,397.1429,8.57143l180,2.85714" sodipodi:nodetypes="cccc" inkscape:connector-curvature="0" stroke="#000" stroke-width="4" inkscape:label="line(Α,Β)" fill="none">
   <desc>visible</desc>
  </path>
 </g>
</svg>
