<?xml version="1.0" encoding="UTF-8" standalone="no"?>
<!-- Created with Inkscape (http://www.inkscape.org/) -->
<svg xmlns:inkscape="http://www.inkscape.org/namespaces/inkscape" xmlns:rdf="http://www.w3.org/1999/02/22-rdf-syntax-ns#" xmlns="http://www.w3.org/2000/svg" inkscape:version="0.48.4 r9939" height="1471" width="3135" version="1.1" xmlns:cc="http://creativecommons.org/ns#" xmlns:dc="http://purl.org/dc/elements/1.1/" sodipodi:docname="CodBod8_trace027.svg" xmlns:sodipodi="http://sodipodi.sourceforge.net/DTD/sodipodi-0.dtd">
 <sodipodi:namedview bordercolor="#666666" inkscape:pageshadow="2" inkscape:window-y="-8" fit-margin-left="0" pagecolor="#ffffff" inkscape:zoom="0.18491211" inkscape:window-maximized="1" inkscape:window-x="-8" showgrid="false" borderopacity="1.0" inkscape:current-layer="g46504" inkscape:cx="858.09681" inkscape:cy="702.31672" inkscape:pageopacity="0.0" fit-margin-right="0" fit-margin-bottom="0" inkscape:window-height="738" fit-margin-top="0" inkscape:window-width="1280" inkscape:document-units="px"/>
 <metadata>
  <rdf:RDF>
   <cc:Work rdf:about="">
    <dc:format>image/svg+xml</dc:format>
    <dc:type rdf:resource="http://purl.org/dc/dcmitype/StillImage"/>
    <dc:title/>
   </cc:Work>
  </rdf:RDF>
 </metadata>
 <g inkscape:label="tracesteps.01" inkscape:groupmode="layer">
  <path d="M3.2939,384.1256c38.0025-49.9248,85.8284-93.4965,142.8586-127.2023,183.226-116.2917,448.3714-92.3883,606.5343,50.9504,115.4638,98.9184,179.4286,243.9678,178.6953,388.8406,5.3705,231.4782-173.4544,463.8097-425.5617,506.2077-190.4602,37.183-389.5522-47.844-501.2186-191.055" inkscape:connector-curvature="0" stroke="#000" stroke-width="4" inkscape:label="circle(Β,Γ,Δ,Η,Θ,Κ,Λ,Μ,Ν)" fill="none">
   <desc>visible</desc>
  </path>
  <text style="word-spacing:0px;letter-spacing:0px;" font-family="Sans" xml:space="preserve" font-size="72px" font-style="normal" sodipodi:linespacing="125%" y="139.57143" x="417.14285" font-weight="normal" inkscape:label="label(Γ)" line-height="125%" fill="#000000"><desc>visible</desc><tspan sodipodi:role="line" x="417.14285" y="139.57143">Γ</tspan></text>
  <text style="word-spacing:0px;letter-spacing:0px;" font-family="Sans" xml:space="preserve" font-size="72px" font-style="normal" sodipodi:linespacing="125%" y="731" x="1000" font-weight="normal" inkscape:label="label(Β)" line-height="125%" fill="#000000"><desc>visible</desc><tspan sodipodi:role="line" x="1000" y="731">Β</tspan></text>
  <text style="word-spacing:0px;letter-spacing:0px;" font-family="Sans" xml:space="preserve" font-size="72px" font-style="normal" sodipodi:linespacing="125%" y="1331" x="348.57144" font-weight="normal" inkscape:label="label(Δ)" line-height="125%" fill="#000000"><desc>visible</desc><tspan sodipodi:role="line" x="348.57144" y="1331">Δ</tspan></text>
 </g>
 <g inkscape:label="tracesteps.02" inkscape:groupmode="layer">
  <path d="m168.5714,1151c65.67756-20.3673,137.799,23.704,208.5714,54.2857,160.2815-67.7321,184.4888-40.8038,225.7143-25.7143,71.15815-103.398,168.5375-154.3535,260-217.1428,18.94433-223.764,50.8839-213.6136,80-254.2857-14.74491-29.03063-15.99393-40.52475-21.18346-60-13.48277,2.86055-15.39542-13.66177-18.81654-25.71429-36.70058-40.65052-14.09037-88.71489-11.42857-134.2857m-885.7143,440c63.10738,28.9871,122.5918,65.7383,148.5715,174.2855,12.35109,9.6134,26.90088,12.6307,34.28572,37.1428m505.7143-894.2863c-31.78353,31.97423-157.9742,51.39715-222.8571-57.14285-42.19895,46.25695-186.232,75.64449-234.2857,25.71428,35.4561,19.2631-64.4121,148.0408-222.8572,165.7143-4.468483,26.3012-5.041984,60.3922-14.28571,77.1429" sodipodi:nodetypes="cccccccccccccccc" inkscape:connector-curvature="0" stroke="#000" stroke-width="4" inkscape:label="polygon(Β,Γ,Δ,Η,Θ,Κ,Λ,Μ,Ν)" fill="none">
   <desc>visible</desc>
  </path>
 </g>
 <g inkscape:label="tracesteps.03" inkscape:groupmode="layer">
  <path d="M888.5714,491,851.4286,968.1429" inkscape:connector-curvature="0" stroke="#000" stroke-width="4" inkscape:label="line(Μ,Ν)" fill="none">
   <desc>visible</desc>
  </path>
  <text style="word-spacing:0px;letter-spacing:0px;" font-family="Sans" xml:space="preserve" font-size="72px" font-style="normal" sodipodi:linespacing="125%" y="471" x="925.71429" font-weight="normal" inkscape:label="label(Μ)" line-height="125%" fill="#000000"><desc>visible</desc><tspan sodipodi:role="line" x="925.71429" y="471">Μ</tspan></text>
  <text style="word-spacing:0px;letter-spacing:0px;" font-family="Sans" xml:space="preserve" font-size="72px" font-style="normal" sodipodi:linespacing="125%" y="1019.5714" x="888.57141" font-weight="normal" inkscape:label="label(Ν)" line-height="125%" fill="#000000"><desc>visible</desc><tspan sodipodi:role="line" x="888.57141" y="1019.5714">Ν</tspan></text>
 </g>
 <g inkscape:label="tracesteps.04" inkscape:groupmode="layer">
  <path d="M242.8571,208.1429,177.1429,1148.143" inkscape:connector-curvature="0" stroke="#000" stroke-width="4" inkscape:label="line(Η,Θ)" fill="none">
   <desc>visible</desc>
  </path>
  <path d="M380,1213.857,462.8571,179.5714" inkscape:connector-curvature="0" stroke="#000" stroke-width="4" inkscape:label="line(Γ,Δ)" fill="none">
   <desc>visible</desc>
  </path>
  <path d="m682.8571,251-40,551.4286c10.19499,33.74453-5.49041,76.11585-17.14285,117.1429,12.32493,28.57142,1.29373,57.14285-8.57143,85.71427l-14.28572,174.2857" sodipodi:nodetypes="ccccc" inkscape:connector-curvature="0" stroke="#000" stroke-width="4" inkscape:label="line(Κ,Λ)" fill="none">
   <desc>visible</desc>
  </path>
  <text style="word-spacing:0px;letter-spacing:0px;" font-family="Sans" xml:space="preserve" font-size="72px" font-style="normal" sodipodi:linespacing="125%" y="171" x="197.14285" font-weight="normal" inkscape:label="label(Η)" line-height="125%" fill="#000000"><desc>visible</desc><tspan sodipodi:role="line" x="197.14285" y="171">Η</tspan></text>
  <text style="word-spacing:0px;letter-spacing:0px;" font-family="Sans" xml:space="preserve" font-size="72px" font-style="normal" sodipodi:linespacing="125%" y="205.28571" x="671.42859" font-weight="normal" inkscape:label="label(Κ)" line-height="125%" fill="#000000"><desc>visible</desc><tspan sodipodi:role="line" x="671.42859" y="205.28571">Κ</tspan></text>
  <text style="word-spacing:0px;letter-spacing:0px;" font-family="Sans" xml:space="preserve" font-size="72px" font-style="normal" sodipodi:linespacing="125%" y="1271" x="122.85714" font-weight="normal" inkscape:label="label(Θ)" line-height="125%" fill="#000000"><desc>visible</desc><tspan sodipodi:role="line" x="122.85714" y="1271">Θ</tspan></text>
  <text style="word-spacing:0px;letter-spacing:0px;" font-family="Sans" xml:space="preserve" font-size="72px" font-style="normal" sodipodi:linespacing="125%" y="1288.1429" x="622.85712" font-weight="normal" inkscape:label="label(Λ)" line-height="125%" fill="#000000"><desc>visible</desc><tspan sodipodi:role="line" x="622.85712" y="1288.1429">Λ</tspan></text>
 </g>
 <g inkscape:label="tracesteps.05" inkscape:groupmode="layer">
  <path sodipodi:rx="292.85715" sodipodi:ry="295.71429" sodipodi:type="arc" d="m1837.143,521a292.8572,295.7143,0,1,1,-585.7143,0,292.8572,295.7143,0,1,1,585.7143,0z" sodipodi:cy="521" transform="matrix(1.0194463,0,0,0.99993478,-35.744988,0.03398026)" stroke="#000" sodipodi:cx="1544.2858" stroke-width="3.96179485" inkscape:label="circle(Ρ)[1]" fill="none">
   <desc>visible</desc>
  </path>
  <text style="word-spacing:0px;letter-spacing:0px;" font-family="Sans" xml:space="preserve" font-size="72px" font-style="normal" sodipodi:linespacing="125%" y="398.42856" x="1494.2856" font-weight="normal" inkscape:label="label(Ρ)[1]" line-height="125%" fill="#000000"><desc>visible,corr</desc><tspan sodipodi:role="line" x="1494.2856" y="398.42856">Ρ</tspan></text>
  <text style="word-spacing:0px;letter-spacing:0px;" font-family="Sans" xml:space="preserve" font-size="72px" font-style="normal" sodipodi:linespacing="125%" y="514.42859" x="1565.7144" font-weight="normal" inkscape:label="label(Ξ)" line-height="125%" fill="#000000"><desc>visible,sic</desc><tspan sodipodi:role="line" x="1565.7144" y="514.42859">Ξ</tspan></text>
 </g>
 <g inkscape:label="tracesteps.06" inkscape:groupmode="layer">
  <path d="M942.8571,713.8571,2.857143,671" inkscape:connector-curvature="0" stroke="#000" stroke-width="4" inkscape:label="line(Β)[1]" fill="none">
   <desc>visible</desc>
  </path>
 </g>
 <g inkscape:label="tracesteps.07" inkscape:groupmode="layer">
  <path d="M940,711,17.14286,376.7143" inkscape:connector-curvature="0" stroke="#000" stroke-width="4" inkscape:label="line(Β)[2]" fill="none">
   <desc>visible</desc>
  </path>
 </g>
 <g inkscape:label="unspecified" inkscape:groupmode="layer">
  <path sodipodi:rx="162.85715" sodipodi:ry="160" sodipodi:type="arc" d="m1625.714,1219.571a162.8572,160,0,1,1,-325.7143,0,162.8572,160,0,1,1,325.7143,0z" transform="matrix(0.96512699,0,0,1.0002185,56.72851,-0.26653552)" stroke="#000" sodipodi:cy="1219.5714" sodipodi:cx="1462.8572" stroke-width="4.07118034" inkscape:label="circle(Τ)" fill="none">
   <desc>visible,del</desc>
  </path>
  <path sodipodi:rx="202.85715" sodipodi:ry="204.28572" sodipodi:type="arc" d="m2288.572,861a202.8572,204.2857,0,1,1,-405.7143,0,202.8572,204.2857,0,1,1,405.7143,0z" stroke="#000" sodipodi:cy="861" sodipodi:cx="2085.7144" stroke-width="4" inkscape:label="circle(Ρ)[2]" fill="none">
   <desc>visible,del</desc>
  </path>
  <path sodipodi:rx="210" sodipodi:ry="207.14285" sodipodi:type="arc" d="m2400,429.5714a210,207.1428,0,1,1,-420,0,210,207.1428,0,1,1,420,0z" transform="matrix(0.97298274,0,0,0.98640317,64.882097,8.6979458)" stroke="#000" sodipodi:cy="429.57144" sodipodi:cx="2190" stroke-width="4.08300781" inkscape:label="circle(Ο)" fill="none">
   <desc>visible,del</desc>
  </path>
  <path sodipodi:rx="272.85715" sodipodi:ry="284.28571" sodipodi:type="arc" d="m3051.429,406.7143a272.8572,284.2857,0,1,1,-545.7143,0,272.8572,284.2857,0,1,1,545.7143,0z" transform="matrix(1.0313002,0,0,0.99989114,-95.541241,0.04427652)" stroke="#000" sodipodi:cy="406.71429" sodipodi:cx="2778.5715" stroke-width="3.93904614" inkscape:label="circle(Π)" fill="none">
   <desc>visible,del</desc>
  </path>
  <path d="m2065.306,1296.171c-3.1667-43.6342,14.0784-105.8223,21.8157-113.285,29.3307-70.9387,105.7925-123.9343,188.9026-125.9957,81.373-3.981,160.8067,41.3902,196.6158,108.1491,16.1743,29.123,24.5242,61.8155,24.4758,94.5048m0.027,0.027c1.1973,80.1521-51.9675,158.9874-131.1887,188.7861-71.6352,28.6074-159.5068,12.4898-215.232-38.6278-52.3027-45.548-75.9396-116.2175-65.4436-182.1115" sodipodi:nodetypes="ccccccccc" inkscape:connector-curvature="0" stroke="#000" stroke-width="4" inkscape:label="circle(Υ)" fill="none">
   <desc>visible,del</desc>
  </path>
  <path sodipodi:rx="287.14285" sodipodi:ry="288.57144" sodipodi:type="arc" d="m3065.714,1065.286a287.1428,288.5714,0,1,1,-574.2857,0,287.1428,288.5714,0,1,1,574.2857,0z" transform="matrix(0.98023682,0,0,0.98033462,60.627708,26.663499)" stroke="#000" sodipodi:cy="1065.2858" sodipodi:cx="2778.5715" stroke-width="4.08044291" inkscape:label="circle(Σ)" fill="none">
   <desc>visible,del</desc>
  </path>
  <text style="letter-spacing:0px;word-spacing:0px;" font-family="Sans" xml:space="preserve" font-size="72px" font-style="normal" sodipodi:linespacing="125%" y="1239.5714" x="1437.1429" font-weight="normal" inkscape:label="label(Τ)" line-height="125%" fill="#000000"><desc>visible,del</desc><tspan sodipodi:role="line" x="1437.1429" y="1239.5714">Τ</tspan></text>
  <text style="letter-spacing:0px;word-spacing:0px;" font-family="Sans" xml:space="preserve" font-size="72px" font-style="normal" sodipodi:linespacing="125%" y="451" x="2180" font-weight="normal" inkscape:label="label(Ο)" line-height="125%" fill="#000000"><desc>visible,del</desc><tspan sodipodi:role="line" x="2180" y="451">Ο</tspan></text>
  <text style="letter-spacing:0px;word-spacing:0px;" font-family="Sans" xml:space="preserve" font-size="72px" font-style="normal" sodipodi:linespacing="125%" y="902.42859" x="2062.8572" font-weight="normal" inkscape:label="label(Ρ)[2]" line-height="125%" fill="#000000"><desc>visible,del</desc><tspan sodipodi:role="line" x="2062.8572" y="902.42859">Ρ</tspan></text>
  <text style="letter-spacing:0px;word-spacing:0px;" font-family="Sans" xml:space="preserve" font-size="72px" font-style="normal" sodipodi:linespacing="125%" y="1285.2856" x="2271.4287" font-weight="normal" inkscape:label="label(Υ)" line-height="125%" fill="#000000"><desc>visible,del</desc><tspan sodipodi:role="line" x="2271.4287" y="1285.2856">Υ</tspan></text>
  <text style="letter-spacing:0px;word-spacing:0px;" font-family="Sans" xml:space="preserve" font-size="72px" font-style="normal" sodipodi:linespacing="125%" y="1108.1429" x="2771.4287" font-weight="normal" inkscape:label="label(Σ)" line-height="125%" fill="#000000"><desc>visible,del</desc><tspan sodipodi:role="line" x="2771.4287" y="1108.1429">Σ</tspan></text>
  <text style="letter-spacing:0px;word-spacing:0px;" font-family="Sans" xml:space="preserve" font-size="72px" font-style="normal" sodipodi:linespacing="125%" y="446.14285" x="2751.7144" font-weight="normal" inkscape:label="label(Π)" line-height="125%" fill="#000000"><desc>visible,del</desc><tspan sodipodi:role="line" x="2751.7144" y="446.14285">Π</tspan></text>
 </g>
</svg>
