<?xml version="1.0" encoding="UTF-8" standalone="no"?>
<!-- Created with Inkscape (http://www.inkscape.org/) -->
<svg xmlns:inkscape="http://www.inkscape.org/namespaces/inkscape" xmlns:rdf="http://www.w3.org/1999/02/22-rdf-syntax-ns#" xmlns="http://www.w3.org/2000/svg" inkscape:version="0.48.4 r9939" height="1218" width="1263" version="1.1" xmlns:cc="http://creativecommons.org/ns#" xmlns:dc="http://purl.org/dc/elements/1.1/" sodipodi:docname="CodBod8_trace030.svg" xmlns:sodipodi="http://sodipodi.sourceforge.net/DTD/sodipodi-0.dtd">
 <sodipodi:namedview bordercolor="#666666" inkscape:pageshadow="2" inkscape:window-y="-8" fit-margin-left="0" pagecolor="#ffffff" inkscape:zoom="0.26150521" inkscape:window-maximized="1" inkscape:window-x="-8" showgrid="false" borderopacity="1.0" inkscape:current-layer="g47442" inkscape:cx="46.263542" inkscape:cy="581.81364" inkscape:pageopacity="0.0" fit-margin-right="0" fit-margin-bottom="0" inkscape:window-height="738" fit-margin-top="0" inkscape:window-width="1280" inkscape:document-units="px"/>
 <metadata>
  <rdf:RDF>
   <cc:Work rdf:about="">
    <dc:format>image/svg+xml</dc:format>
    <dc:type rdf:resource="http://purl.org/dc/dcmitype/StillImage"/>
    <dc:title/>
   </cc:Work>
  </rdf:RDF>
 </metadata>
 <g inkscape:label="tracesteps.01" inkscape:groupmode="layer">
  <path sodipodi:rx="351.53308" sodipodi:ry="336.3808" sodipodi:type="arc" d="m993.9901,645.2435a351.5331,336.3808,0,1,1,-703.0662,0,351.5331,336.3808,0,1,1,703.0662,0z" sodipodi:cy="645.24353" transform="matrix(0.97701843,0,0,1.0210282,22.845892,-20.639422)" stroke="#000" sodipodi:cx="642.45703" stroke-width="4" inkscape:label="circle(Α,Β,Γ,Δ,Κ)" fill="none">
   <desc>visible</desc>
  </path>
  <text style="word-spacing:0px;letter-spacing:0px;" font-family="Sans" sodipodi:linespacing="125%" font-size="72px" font-style="normal" xml:space="preserve" y="624.03027" x="325.26913" font-weight="normal" inkscape:label="label(Α)" line-height="125%" fill="#000000"><desc>visible</desc><tspan sodipodi:role="line" x="325.26913" y="624.03027">Α</tspan></text>
  <text style="word-spacing:0px;letter-spacing:0px;" font-family="Sans" sodipodi:linespacing="125%" font-size="72px" font-style="normal" xml:space="preserve" y="373.57339" x="690.92401" font-weight="normal" inkscape:label="label(Β)" line-height="125%" fill="#000000"><desc>visible</desc><tspan sodipodi:role="line" x="690.92401" y="373.57339">Β</tspan></text>
  <text style="word-spacing:0px;letter-spacing:0px;" font-family="Sans" sodipodi:linespacing="125%" font-size="72px" font-style="normal" xml:space="preserve" y="682.57855" x="937.40125" font-weight="normal" inkscape:label="label(Γ)" line-height="125%" fill="#000000"><desc>visible</desc><tspan sodipodi:role="line" x="937.40125" y="682.57855">Γ</tspan></text>
  <text style="word-spacing:0px;letter-spacing:0px;" font-family="Sans" sodipodi:linespacing="125%" font-size="72px" font-style="normal" xml:space="preserve" y="902.8324" x="470.58896" font-weight="normal" inkscape:label="label(Δ)" line-height="125%" fill="#000000"><desc>visible</desc><tspan sodipodi:role="line" x="470.58896" y="902.8324">Δ</tspan></text>
 </g>
 <g inkscape:groupmode="layer" stroke="#000" stroke-width="4" inkscape:label="tracesteps.02" fill="none">
  <path sodipodi:nodetypes="cccccccccccccc" inkscape:label="polygon(Δ,Ζ,Θ,Κ)" d="M671.4286,115.1429c-4.7697,212.3472,208.141,286.8065,258.5714,84.2857-176.6198,278.3355,122.76,284.6935,188.571,217.1428-161.8195,86.443-187.945,223.4852,42.858,301.4286-123.617-27.3342-324.5703,50.2737-114.286,251.4286-211.369-175.633-232.0856,18.7842-174.2859,137.1424-129.9002-285.9362-244.4809-28.619-248.5714,48.572,0.7329-328.5628-184.9217-129.928-197.1428-47.143,112.4222-287.4096-142.7814-220.9615-217.1429-194.2857,261.5856-197.9169-16.4955-307.6151-81.4286-298.5714,271.5883,23.4828,216.3666-156.527,62.8572-224.2858,234.5266,199.9067,311.8594-169.0683,250-230,50.48039,278.3204,212.894,114.2544,230-45.71428z" inkscape:connector-curvature="0">
   <desc>visible,corr</desc>
  </path>
  <path d="m475.7818,265.4262c3.72841,26.63394,84.18001,49.63113,97.98479,9.09137m-349.5127,134.3502c26.86813-12.59167,66.46116,13.58663,71.72084,35.35534m-8.08123,46.46701c6.75771-14.81557-7.95126-29.63114-13.13198-44.44671m14.14214,140.4112c22.49404-22.33843,4.79288-58.87919,27.27411-66.67006m-94.95433,92.93403c18.81637-5.35161,42.91523-11.54527,54.54823-31.31473m1.01016,146.4721c11.57758-3.09345,9.74298-44.19387-22.22336-71.72083m44.44671,81.82235c12.87808,3.78036,9.2696-32.07045-15.15229-51.51778m19.1929,84.85282c20.11466,4.76733,14.62111-50.5391,8.08122-54.54824m53.53809,170.7158c-15.11373,1.42398-34.59935-5.8958-42.42641,10.10153m101.0152,26.26396c1.47792-8.16747-22.42269-44.19732-43.43656-21.2132m60.60916,81.82235c2.08842-9.20566,39.69324-53.4995,66.67006-21.2132m-111.1167,125.2586c14.71764-66.41,62.73499-122.626,69.70052-116.1676m102.0254,28.28427c8.12145-8.76432-3.0384-30.6101-25.25382-28.28427m55.55839,62.62947c7.32814-18.2258-13.16829-55.03516-23.23351-56.56855m432.3453-40.4061c-17.6257-14.5335-31.1427-29.337-58.5888-41.4158m-153.5432,118.1875c1.03503-13.4417-36.9904-53.46888-69.70053-35.3553m229.3047-177.7865c-4.81643,31.06435,31.72148,94.0293,34.34519,86.87312m62.48926-256.4046c-3.7838,44.78685,34.5553,54.45624,58.5714,64.28571m-88.7358-201.8406c-29.65489,51.86361-16.545,111.0394-5.0507,88.89343m36.3654-124.2488c-29.5936,30.96912-55.45536,103.8274-33.335,88.89343m-79.8011-126.269c42.03313,38.87981,114.2349,19.49907,170.7157-4.04061m-219.2035-14.1422c5.86863,6.74836,60.49419,33.21512,73.74113,18.18275m-86.87311-48.48732c12.82462,15.2545,42.24523,46.93632,64.64976,19.1929m-58.58885-95.9645c-9.5894,45.59327-10.37416,82.82214,33.33504,77.78175m-135.3604-61.6193c20.47965-1.7677,36.48101,7.543,54.54823-11.11168m-116.1674-32.3248c15.15229,12.63404,30.30457,20.12219,45.45686,6.06091m-67.1242-36.0991c14.57344,14.99351,30.32538,35.48669,37.14286,14.28571m-50-41.42857c7.14286,8.12528,14.28571,17.21338,21.42857,14.28571m52.49186,77.24053c10.10153,3.56401,25.25381,8.89421,35.35534,2.0203" stroke-dashoffset="0" stroke-miterlimit="4" stroke-dasharray="none" inkscape:label="polygon(Δ,Ζ,Θ,Κ)">
   <desc>visible,sic</desc>
  </path>
 </g>
 <g inkscape:label="tracesteps.03" inkscape:groupmode="layer">
  <path sodipodi:rx="521.23871" sodipodi:ry="517.19812" sodipodi:type="arc" d="m1169.757,640.1928a521.2387,517.1981,0,1,1,-1042.477,0,521.2387,517.1981,0,1,1,1042.477,0z" sodipodi:cy="640.19275" transform="matrix(0.9999851,0,0,1.0077975,0.00966407,-9.0325013)" stroke="#000" sodipodi:cx="648.51794" stroke-width="3.9845252" inkscape:label="circle(Ζ,Θ)" fill="none">
   <desc>visible</desc>
  </path>
 </g>
 <g font-size="72px" font-family="Sans" inkscape:groupmode="layer" font-weight="normal" inkscape:label="tracesteps.04" font-style="normal" fill="#000">
  <text style="word-spacing:0px;letter-spacing:0px;" xml:space="preserve" line-height="125%" y="177.54288" x="583.86816" inkscape:label="label(Ζ)" sodipodi:linespacing="125%"><desc>visible</desc><tspan sodipodi:role="line" x="583.86816" y="177.54288">Ζ</tspan></text>
  <text style="word-spacing:0px;letter-spacing:0px;" xml:space="preserve" line-height="125%" y="1127.0863" x="551.54327" inkscape:label="label(Θ)" sodipodi:linespacing="125%"><desc>visible</desc><tspan sodipodi:role="line" x="551.54327" y="1127.0863">Θ</tspan></text>
 </g>
 <g inkscape:groupmode="layer" stroke="#000" stroke-width="4" inkscape:label="tracesteps.05" fill="none">
  <path inkscape:label="line(Α)" d="m129.2995,613.9288,177.8336,17.71388">
   <desc>visible</desc>
  </path>
  <path inkscape:label="line(Α,Γ)" d="m307.1331,631.6427,678.9284,67.62757">
   <desc>visible</desc>
  </path>
  <path inkscape:label="line(Γ)" d="M986.0614,699.2702,1163.696,716.9643">
   <desc>visible</desc>
  </path>
 </g>
 <g inkscape:groupmode="layer" stroke="#000" stroke-width="4" inkscape:label="tracesteps.06" fill="none">
  <path inkscape:label="line(Κ)" d="M472.7514,149.2586,459.886,353.3899">
   <desc>visible</desc>
  </path>
  <path inkscape:label="line(Δ,Κ)" d="M459.886,353.3899,425.3881,900.7556">
   <desc>visible</desc>
  </path>
  <path inkscape:label="line(Δ)" d="M425.3881,900.7556,412.1422,1110.924">
   <desc>visible</desc>
  </path>
  <path inkscape:label="line(Β,Θ)" d="M624.2743,1153.35,664.597,294.8116">
   <desc>visible</desc>
  </path>
  <path inkscape:label="line(Β,Ζ)" d="M664.597,294.8116,672.7616,120.9743">
   <desc>visible</desc>
  </path>
 </g>
 <g inkscape:label="tracesteps.07" inkscape:groupmode="layer">
  <text style="word-spacing:0px;letter-spacing:0px;" font-family="Sans" sodipodi:linespacing="125%" font-size="72px" font-style="normal" xml:space="preserve" y="421.93887" x="498.93414" font-weight="normal" inkscape:label="label(Κ)" line-height="125%" fill="#000000"><desc>visible</desc><tspan sodipodi:role="line" x="498.93414" y="421.93887">Κ</tspan></text>
 </g>
</svg>
